<?xml version="1.0" encoding="UTF-8"?>
<svg xmlns="http://www.w3.org/2000/svg" xmlns:xlink="http://www.w3.org/1999/xlink" width="1920" height="1080" viewBox="0 0 1920 1080">
<defs>
<g>
<g id="glyph-0-0">
<path d="M 0.71875 0.03125 C 0.53125 0.03125 0.390625 -0.03125 0.296875 -0.15625 C 0.203125 -0.28125 0.15625 -0.476562 0.15625 -0.75 C 0.15625 -1.007812 0.203125 -1.203125 0.296875 -1.328125 C 0.390625 -1.453125 0.53125 -1.515625 0.71875 -1.515625 C 0.820312 -1.515625 0.90625 -1.488281 0.96875 -1.4375 C 1.039062 -1.394531 1.097656 -1.34375 1.140625 -1.28125 L 1.15625 -1.28125 C 1.15625 -1.320312 1.148438 -1.367188 1.140625 -1.421875 C 1.140625 -1.484375 1.140625 -1.535156 1.140625 -1.578125 L 1.140625 -1.8125 C 1.140625 -1.894531 1.117188 -1.945312 1.078125 -1.96875 C 1.035156 -1.988281 0.984375 -2 0.921875 -2 L 0.890625 -2 L 0.890625 -2.109375 L 1.40625 -2.109375 L 1.40625 -0.3125 C 1.40625 -0.226562 1.425781 -0.171875 1.46875 -0.140625 C 1.519531 -0.117188 1.578125 -0.109375 1.640625 -0.109375 L 1.65625 -0.109375 L 1.65625 0 L 1.1875 0 L 1.15625 -0.25 L 1.140625 -0.25 C 1.097656 -0.164062 1.046875 -0.0976562 0.984375 -0.046875 C 0.921875 0.00390625 0.832031 0.03125 0.71875 0.03125 Z M 0.765625 -0.15625 C 0.910156 -0.15625 1.007812 -0.203125 1.0625 -0.296875 C 1.113281 -0.390625 1.140625 -0.539062 1.140625 -0.75 C 1.140625 -0.9375 1.113281 -1.082031 1.0625 -1.1875 C 1.007812 -1.289062 0.910156 -1.34375 0.765625 -1.34375 C 0.640625 -1.34375 0.550781 -1.289062 0.5 -1.1875 C 0.445312 -1.082031 0.421875 -0.929688 0.421875 -0.734375 C 0.421875 -0.535156 0.445312 -0.390625 0.5 -0.296875 C 0.550781 -0.203125 0.640625 -0.15625 0.765625 -0.15625 Z "/>
</g>
<g id="glyph-0-1">
<path d="M 0.796875 0.03125 C 0.597656 0.03125 0.441406 -0.03125 0.328125 -0.15625 C 0.210938 -0.289062 0.15625 -0.488281 0.15625 -0.75 C 0.15625 -1.007812 0.207031 -1.203125 0.3125 -1.328125 C 0.425781 -1.453125 0.59375 -1.515625 0.8125 -1.515625 C 1.007812 -1.515625 1.164062 -1.453125 1.28125 -1.328125 C 1.394531 -1.203125 1.453125 -1.007812 1.453125 -0.75 C 1.453125 -0.488281 1.394531 -0.289062 1.28125 -0.15625 C 1.175781 -0.03125 1.015625 0.03125 0.796875 0.03125 Z M 0.796875 -0.109375 C 0.941406 -0.109375 1.039062 -0.160156 1.09375 -0.265625 C 1.15625 -0.378906 1.1875 -0.539062 1.1875 -0.75 C 1.1875 -0.957031 1.15625 -1.113281 1.09375 -1.21875 C 1.039062 -1.320312 0.941406 -1.375 0.796875 -1.375 C 0.660156 -1.375 0.5625 -1.320312 0.5 -1.21875 C 0.445312 -1.113281 0.421875 -0.957031 0.421875 -0.75 C 0.421875 -0.539062 0.445312 -0.378906 0.5 -0.265625 C 0.5625 -0.160156 0.660156 -0.109375 0.796875 -0.109375 Z "/>
</g>
<g id="glyph-0-2">
<path d="M 0.765625 0.03125 C 0.617188 0.03125 0.503906 -0.0078125 0.421875 -0.09375 C 0.335938 -0.1875 0.296875 -0.328125 0.296875 -0.515625 L 0.296875 -1.1875 C 0.296875 -1.269531 0.273438 -1.320312 0.234375 -1.34375 C 0.191406 -1.363281 0.140625 -1.375 0.078125 -1.375 L 0.0625 -1.375 L 0.0625 -1.484375 L 0.5625 -1.484375 L 0.5625 -0.53125 C 0.5625 -0.40625 0.582031 -0.3125 0.625 -0.25 C 0.664062 -0.1875 0.742188 -0.15625 0.859375 -0.15625 C 0.972656 -0.15625 1.054688 -0.191406 1.109375 -0.265625 C 1.171875 -0.347656 1.203125 -0.457031 1.203125 -0.59375 L 1.203125 -1.171875 C 1.203125 -1.253906 1.179688 -1.304688 1.140625 -1.328125 C 1.097656 -1.359375 1.039062 -1.375 0.96875 -1.375 L 0.96875 -1.484375 L 1.46875 -1.484375 L 1.46875 -0.296875 C 1.46875 -0.222656 1.488281 -0.171875 1.53125 -0.140625 C 1.582031 -0.117188 1.632812 -0.109375 1.6875 -0.109375 L 1.703125 -0.109375 L 1.703125 0 L 1.265625 0 L 1.21875 -0.21875 L 1.203125 -0.21875 C 1.148438 -0.113281 1.082031 -0.046875 1 -0.015625 C 0.925781 0.015625 0.847656 0.03125 0.765625 0.03125 Z "/>
</g>
<g id="glyph-0-3">
<path d="M 0.984375 0.03125 C 0.878906 0.03125 0.789062 0.0078125 0.71875 -0.03125 C 0.65625 -0.0820312 0.601562 -0.144531 0.5625 -0.21875 L 0.546875 -0.21875 L 0.5 0 L 0.046875 0 L 0.046875 -0.109375 L 0.078125 -0.109375 C 0.140625 -0.109375 0.191406 -0.117188 0.234375 -0.140625 C 0.273438 -0.171875 0.296875 -0.226562 0.296875 -0.3125 L 0.296875 -1.8125 C 0.296875 -1.894531 0.273438 -1.945312 0.234375 -1.96875 C 0.191406 -1.988281 0.140625 -2 0.078125 -2 L 0.046875 -2 L 0.046875 -2.109375 L 0.5625 -2.109375 L 0.5625 -1.609375 C 0.5625 -1.566406 0.5625 -1.519531 0.5625 -1.46875 C 0.5625 -1.425781 0.554688 -1.378906 0.546875 -1.328125 C 0.546875 -1.285156 0.546875 -1.253906 0.546875 -1.234375 L 0.5625 -1.234375 C 0.601562 -1.328125 0.65625 -1.394531 0.71875 -1.4375 C 0.789062 -1.488281 0.878906 -1.515625 0.984375 -1.515625 C 1.171875 -1.515625 1.3125 -1.453125 1.40625 -1.328125 C 1.5 -1.210938 1.546875 -1.019531 1.546875 -0.75 C 1.546875 -0.476562 1.5 -0.28125 1.40625 -0.15625 C 1.3125 -0.03125 1.171875 0.03125 0.984375 0.03125 Z M 0.9375 -0.15625 C 1.0625 -0.15625 1.148438 -0.203125 1.203125 -0.296875 C 1.253906 -0.398438 1.28125 -0.550781 1.28125 -0.75 C 1.28125 -0.945312 1.253906 -1.09375 1.203125 -1.1875 C 1.148438 -1.289062 1.0625 -1.34375 0.9375 -1.34375 C 0.789062 -1.34375 0.691406 -1.289062 0.640625 -1.1875 C 0.585938 -1.09375 0.5625 -0.945312 0.5625 -0.75 C 0.5625 -0.550781 0.585938 -0.398438 0.640625 -0.296875 C 0.691406 -0.203125 0.789062 -0.15625 0.9375 -0.15625 Z "/>
</g>
<g id="glyph-0-4">
<path d="M 0.03125 0 L 0.03125 -0.109375 L 0.078125 -0.109375 C 0.140625 -0.109375 0.191406 -0.117188 0.234375 -0.140625 C 0.273438 -0.171875 0.296875 -0.226562 0.296875 -0.3125 L 0.296875 -1.8125 C 0.296875 -1.894531 0.273438 -1.945312 0.234375 -1.96875 C 0.191406 -1.988281 0.140625 -2 0.078125 -2 L 0.03125 -2 L 0.03125 -2.109375 L 0.5625 -2.109375 L 0.5625 -0.3125 C 0.5625 -0.226562 0.582031 -0.171875 0.625 -0.140625 C 0.664062 -0.117188 0.722656 -0.109375 0.796875 -0.109375 L 0.828125 -0.109375 L 0.828125 0 Z "/>
</g>
<g id="glyph-0-5">
<path d="M 0.796875 0.03125 C 0.597656 0.03125 0.441406 -0.0351562 0.328125 -0.171875 C 0.210938 -0.304688 0.15625 -0.492188 0.15625 -0.734375 C 0.15625 -0.992188 0.207031 -1.1875 0.3125 -1.3125 C 0.414062 -1.445312 0.566406 -1.515625 0.765625 -1.515625 C 0.953125 -1.515625 1.09375 -1.457031 1.1875 -1.34375 C 1.289062 -1.238281 1.34375 -1.078125 1.34375 -0.859375 L 1.34375 -0.71875 L 0.421875 -0.71875 C 0.421875 -0.519531 0.457031 -0.375 0.53125 -0.28125 C 0.601562 -0.1875 0.707031 -0.140625 0.84375 -0.140625 C 0.9375 -0.140625 1.015625 -0.160156 1.078125 -0.203125 C 1.148438 -0.242188 1.203125 -0.289062 1.234375 -0.34375 C 1.242188 -0.332031 1.253906 -0.316406 1.265625 -0.296875 C 1.273438 -0.285156 1.28125 -0.269531 1.28125 -0.25 C 1.28125 -0.207031 1.265625 -0.164062 1.234375 -0.125 C 1.203125 -0.0820312 1.148438 -0.046875 1.078125 -0.015625 C 1.003906 0.015625 0.910156 0.03125 0.796875 0.03125 Z M 1.0625 -0.875 C 1.0625 -1.019531 1.039062 -1.140625 1 -1.234375 C 0.957031 -1.328125 0.878906 -1.375 0.765625 -1.375 C 0.660156 -1.375 0.578125 -1.328125 0.515625 -1.234375 C 0.460938 -1.148438 0.429688 -1.03125 0.421875 -0.875 Z "/>
</g>
<g id="glyph-0-6">
<path d="M 0.0625 -0.65625 L 0.0625 -0.859375 L 0.796875 -0.859375 L 0.796875 -0.65625 Z "/>
</g>
<g id="glyph-0-7">
<path d="M 0.078125 0 L 0.078125 -0.109375 L 0.109375 -0.109375 C 0.171875 -0.109375 0.222656 -0.117188 0.265625 -0.140625 C 0.316406 -0.171875 0.34375 -0.226562 0.34375 -0.3125 L 0.34375 -1.359375 L 0.09375 -1.359375 L 0.09375 -1.484375 L 0.34375 -1.484375 L 0.34375 -1.53125 C 0.34375 -1.71875 0.382812 -1.859375 0.46875 -1.953125 C 0.5625 -2.054688 0.691406 -2.109375 0.859375 -2.109375 C 0.984375 -2.109375 1.070312 -2.085938 1.125 -2.046875 C 1.1875 -2.015625 1.21875 -1.972656 1.21875 -1.921875 C 1.21875 -1.867188 1.195312 -1.828125 1.15625 -1.796875 C 1.113281 -1.773438 1.0625 -1.765625 1 -1.765625 C 1 -1.816406 0.984375 -1.863281 0.953125 -1.90625 C 0.929688 -1.957031 0.882812 -1.984375 0.8125 -1.984375 C 0.726562 -1.984375 0.671875 -1.941406 0.640625 -1.859375 C 0.609375 -1.785156 0.59375 -1.6875 0.59375 -1.5625 L 0.59375 -1.484375 L 1.28125 -1.484375 L 1.28125 -1.625 C 1.28125 -1.789062 1.320312 -1.914062 1.40625 -2 C 1.5 -2.09375 1.625 -2.140625 1.78125 -2.140625 C 1.914062 -2.140625 2.007812 -2.117188 2.0625 -2.078125 C 2.125 -2.046875 2.15625 -2.003906 2.15625 -1.953125 C 2.15625 -1.898438 2.132812 -1.859375 2.09375 -1.828125 C 2.050781 -1.804688 2 -1.796875 1.9375 -1.796875 C 1.9375 -1.847656 1.921875 -1.894531 1.890625 -1.9375 C 1.867188 -1.988281 1.820312 -2.015625 1.75 -2.015625 C 1.664062 -2.015625 1.609375 -1.984375 1.578125 -1.921875 C 1.554688 -1.859375 1.546875 -1.769531 1.546875 -1.65625 L 1.546875 -1.484375 L 1.9375 -1.484375 L 1.9375 -1.359375 L 1.546875 -1.359375 L 1.546875 -0.3125 C 1.546875 -0.226562 1.566406 -0.171875 1.609375 -0.140625 C 1.648438 -0.117188 1.703125 -0.109375 1.765625 -0.109375 L 1.875 -0.109375 L 1.875 0 L 1.015625 0 L 1.015625 -0.109375 L 1.046875 -0.109375 C 1.117188 -0.109375 1.175781 -0.117188 1.21875 -0.140625 C 1.257812 -0.171875 1.28125 -0.226562 1.28125 -0.3125 L 1.28125 -1.359375 L 0.59375 -1.359375 L 0.59375 -0.3125 C 0.59375 -0.226562 0.613281 -0.171875 0.65625 -0.140625 C 0.707031 -0.117188 0.765625 -0.109375 0.828125 -0.109375 L 0.875 -0.109375 L 0.875 0 Z "/>
</g>
<g id="glyph-0-8">
<path d="M 0.09375 0 L 0.09375 -0.109375 C 0.15625 -0.109375 0.207031 -0.117188 0.25 -0.140625 C 0.300781 -0.171875 0.328125 -0.226562 0.328125 -0.3125 L 0.328125 -1.1875 C 0.328125 -1.269531 0.300781 -1.320312 0.25 -1.34375 C 0.207031 -1.363281 0.15625 -1.375 0.09375 -1.375 L 0.09375 -1.484375 L 0.515625 -1.484375 L 0.578125 -1.21875 L 0.59375 -1.21875 C 0.613281 -1.269531 0.632812 -1.316406 0.65625 -1.359375 C 0.6875 -1.410156 0.722656 -1.445312 0.765625 -1.46875 C 0.816406 -1.5 0.882812 -1.515625 0.96875 -1.515625 C 1.070312 -1.515625 1.144531 -1.492188 1.1875 -1.453125 C 1.238281 -1.421875 1.265625 -1.375 1.265625 -1.3125 C 1.265625 -1.257812 1.242188 -1.210938 1.203125 -1.171875 C 1.171875 -1.140625 1.109375 -1.125 1.015625 -1.125 C 1.015625 -1.195312 1 -1.25 0.96875 -1.28125 C 0.945312 -1.3125 0.910156 -1.328125 0.859375 -1.328125 C 0.804688 -1.328125 0.757812 -1.304688 0.71875 -1.265625 C 0.6875 -1.234375 0.660156 -1.1875 0.640625 -1.125 C 0.628906 -1.0625 0.617188 -0.992188 0.609375 -0.921875 C 0.597656 -0.859375 0.59375 -0.796875 0.59375 -0.734375 L 0.59375 -0.296875 C 0.59375 -0.222656 0.613281 -0.171875 0.65625 -0.140625 C 0.695312 -0.117188 0.75 -0.109375 0.8125 -0.109375 L 0.890625 -0.109375 L 0.890625 0 Z "/>
</g>
</g>
</defs>
<g fill="rgb(53.333333%, 53.333333%, 53.333333%)" fill-opacity="1">
<use xlink:href="#glyph-0-0" x="30" y="22.96875"/>
<use xlink:href="#glyph-0-1" x="32" y="22.96875"/>
<use xlink:href="#glyph-0-2" x="34" y="22.96875"/>
<use xlink:href="#glyph-0-3" x="36" y="22.96875"/>
<use xlink:href="#glyph-0-4" x="38" y="22.96875"/>
<use xlink:href="#glyph-0-5" x="39" y="22.96875"/>
<use xlink:href="#glyph-0-6" x="40" y="22.96875"/>
<use xlink:href="#glyph-0-3" x="41" y="22.96875"/>
<use xlink:href="#glyph-0-2" x="43" y="22.96875"/>
<use xlink:href="#glyph-0-7" x="45" y="22.96875"/>
<use xlink:href="#glyph-0-5" x="47" y="22.96875"/>
<use xlink:href="#glyph-0-8" x="48" y="22.96875"/>
<use xlink:href="#glyph-0-5" x="49" y="22.96875"/>
<use xlink:href="#glyph-0-0" x="50" y="22.96875"/>
</g>
</svg>
