<?xml version="1.0" encoding="UTF-8"?>
<svg xmlns="http://www.w3.org/2000/svg" xmlns:xlink="http://www.w3.org/1999/xlink" width="1920" height="1080" viewBox="0 0 1920 1080">
<defs>
<g>
<g id="glyph-0-0">
<path d="M 0.015625 0 L 0.015625 -0.21875 L 0.0625 -0.21875 C 0.132812 -0.21875 0.195312 -0.238281 0.25 -0.28125 C 0.300781 -0.320312 0.351562 -0.40625 0.40625 -0.53125 L 1.3125 -2.984375 L 1.875 -2.984375 L 2.765625 -0.46875 C 2.796875 -0.375 2.835938 -0.304688 2.890625 -0.265625 C 2.941406 -0.234375 3.007812 -0.21875 3.09375 -0.21875 L 3.140625 -0.21875 L 3.140625 0 L 1.765625 0 L 1.765625 -0.21875 L 1.90625 -0.21875 C 1.96875 -0.21875 2.015625 -0.226562 2.046875 -0.25 C 2.085938 -0.28125 2.109375 -0.320312 2.109375 -0.375 C 2.109375 -0.414062 2.101562 -0.453125 2.09375 -0.484375 C 2.082031 -0.515625 2.070312 -0.539062 2.0625 -0.5625 L 1.921875 -0.984375 L 0.90625 -0.984375 L 0.78125 -0.625 C 0.769531 -0.59375 0.757812 -0.550781 0.75 -0.5 C 0.738281 -0.457031 0.734375 -0.421875 0.734375 -0.390625 C 0.734375 -0.273438 0.800781 -0.21875 0.9375 -0.21875 L 1.09375 -0.21875 L 1.09375 0 Z M 1 -1.234375 L 1.84375 -1.234375 L 1.59375 -2 C 1.5625 -2.09375 1.53125 -2.1875 1.5 -2.28125 C 1.46875 -2.375 1.445312 -2.46875 1.4375 -2.5625 C 1.40625 -2.46875 1.375 -2.378906 1.34375 -2.296875 C 1.320312 -2.210938 1.296875 -2.117188 1.265625 -2.015625 Z "/>
</g>
<g id="glyph-0-1">
<path d="M 1.234375 0.046875 C 1.023438 0.046875 0.84375 0.0078125 0.6875 -0.0625 C 0.53125 -0.132812 0.410156 -0.253906 0.328125 -0.421875 C 0.242188 -0.597656 0.203125 -0.828125 0.203125 -1.109375 C 0.203125 -1.410156 0.242188 -1.644531 0.328125 -1.8125 C 0.421875 -1.988281 0.546875 -2.113281 0.703125 -2.1875 C 0.859375 -2.257812 1.03125 -2.296875 1.21875 -2.296875 C 1.488281 -2.296875 1.691406 -2.25 1.828125 -2.15625 C 1.972656 -2.070312 2.046875 -1.972656 2.046875 -1.859375 C 2.046875 -1.796875 2.03125 -1.738281 2 -1.6875 C 1.96875 -1.632812 1.910156 -1.585938 1.828125 -1.546875 C 1.753906 -1.515625 1.644531 -1.5 1.5 -1.5 C 1.5 -1.59375 1.488281 -1.679688 1.46875 -1.765625 C 1.457031 -1.847656 1.429688 -1.910156 1.390625 -1.953125 C 1.359375 -2.003906 1.304688 -2.03125 1.234375 -2.03125 C 1.148438 -2.03125 1.078125 -2.003906 1.015625 -1.953125 C 0.960938 -1.898438 0.921875 -1.804688 0.890625 -1.671875 C 0.859375 -1.535156 0.84375 -1.347656 0.84375 -1.109375 C 0.84375 -0.828125 0.878906 -0.613281 0.953125 -0.46875 C 1.035156 -0.332031 1.160156 -0.265625 1.328125 -0.265625 C 1.472656 -0.265625 1.597656 -0.296875 1.703125 -0.359375 C 1.816406 -0.429688 1.894531 -0.515625 1.9375 -0.609375 C 1.96875 -0.585938 1.992188 -0.554688 2.015625 -0.515625 C 2.035156 -0.484375 2.046875 -0.453125 2.046875 -0.421875 C 2.046875 -0.347656 2.015625 -0.273438 1.953125 -0.203125 C 1.898438 -0.128906 1.8125 -0.0664062 1.6875 -0.015625 C 1.570312 0.0234375 1.421875 0.046875 1.234375 0.046875 Z "/>
</g>
<g id="glyph-0-2">
<path d="M 1.0625 0.046875 C 0.84375 0.046875 0.675781 0 0.5625 -0.09375 C 0.457031 -0.195312 0.40625 -0.375 0.40625 -0.625 L 0.40625 -1.953125 L 0.09375 -1.953125 L 0.09375 -2.171875 C 0.175781 -2.171875 0.253906 -2.1875 0.328125 -2.21875 C 0.398438 -2.25 0.457031 -2.289062 0.5 -2.34375 C 0.582031 -2.4375 0.644531 -2.570312 0.6875 -2.75 L 1.03125 -2.75 L 1.03125 -2.234375 L 1.5625 -2.234375 L 1.5625 -1.953125 L 1.03125 -1.953125 L 1.03125 -0.65625 C 1.03125 -0.53125 1.050781 -0.4375 1.09375 -0.375 C 1.132812 -0.320312 1.207031 -0.296875 1.3125 -0.296875 C 1.363281 -0.296875 1.414062 -0.296875 1.46875 -0.296875 C 1.519531 -0.304688 1.566406 -0.316406 1.609375 -0.328125 L 1.609375 -0.0625 C 1.566406 -0.0390625 1.492188 -0.0195312 1.390625 0 C 1.296875 0.03125 1.1875 0.046875 1.0625 0.046875 Z "/>
</g>
<g id="glyph-0-3">
<path d="M 1.03125 -0.578125 L 1.03125 -1.34375 L 0.265625 -1.34375 L 0.265625 -1.640625 L 1.03125 -1.640625 L 1.03125 -2.40625 L 1.328125 -2.40625 L 1.328125 -1.640625 L 2.09375 -1.640625 L 2.09375 -1.34375 L 1.328125 -1.34375 L 1.328125 -0.578125 Z "/>
</g>
<g id="glyph-0-4">
<path d="M 2.40625 0.984375 C 2.238281 0.984375 2.078125 0.953125 1.921875 0.890625 C 1.765625 0.828125 1.632812 0.722656 1.53125 0.578125 C 1.425781 0.441406 1.363281 0.253906 1.34375 0.015625 C 0.96875 -0.046875 0.6875 -0.207031 0.5 -0.46875 C 0.320312 -0.738281 0.234375 -1.082031 0.234375 -1.5 C 0.234375 -1.800781 0.285156 -2.066406 0.390625 -2.296875 C 0.492188 -2.523438 0.648438 -2.703125 0.859375 -2.828125 C 1.066406 -2.960938 1.328125 -3.03125 1.640625 -3.03125 C 1.941406 -3.03125 2.195312 -2.960938 2.40625 -2.828125 C 2.625 -2.703125 2.785156 -2.523438 2.890625 -2.296875 C 2.992188 -2.066406 3.046875 -1.800781 3.046875 -1.5 C 3.046875 -1.101562 2.957031 -0.773438 2.78125 -0.515625 C 2.613281 -0.253906 2.367188 -0.0820312 2.046875 0 C 2.054688 0.195312 2.09375 0.347656 2.15625 0.453125 C 2.21875 0.566406 2.289062 0.644531 2.375 0.6875 C 2.457031 0.726562 2.546875 0.75 2.640625 0.75 L 2.703125 0.75 L 2.703125 0.984375 Z M 1.640625 -0.234375 C 1.898438 -0.234375 2.082031 -0.34375 2.1875 -0.5625 C 2.300781 -0.78125 2.359375 -1.09375 2.359375 -1.5 C 2.359375 -1.894531 2.300781 -2.203125 2.1875 -2.421875 C 2.082031 -2.640625 1.898438 -2.75 1.640625 -2.75 C 1.378906 -2.75 1.195312 -2.640625 1.09375 -2.421875 C 0.988281 -2.203125 0.9375 -1.894531 0.9375 -1.5 C 0.9375 -1.09375 0.988281 -0.78125 1.09375 -0.5625 C 1.195312 -0.34375 1.378906 -0.234375 1.640625 -0.234375 Z "/>
</g>
<g id="glyph-0-5">
<path d="M 1.09375 0.046875 C 0.851562 0.046875 0.675781 -0.0195312 0.5625 -0.15625 C 0.457031 -0.289062 0.40625 -0.5 0.40625 -0.78125 L 0.40625 -1.71875 C 0.40625 -1.832031 0.382812 -1.910156 0.34375 -1.953125 C 0.300781 -1.992188 0.226562 -2.015625 0.125 -2.015625 L 0.109375 -2.015625 L 0.109375 -2.234375 L 1.03125 -2.234375 L 1.03125 -0.90625 C 1.03125 -0.726562 1.050781 -0.582031 1.09375 -0.46875 C 1.144531 -0.363281 1.234375 -0.3125 1.359375 -0.3125 C 1.484375 -0.3125 1.578125 -0.367188 1.640625 -0.484375 C 1.703125 -0.597656 1.734375 -0.753906 1.734375 -0.953125 L 1.734375 -1.75 C 1.734375 -1.863281 1.707031 -1.9375 1.65625 -1.96875 C 1.601562 -2 1.535156 -2.015625 1.453125 -2.015625 L 1.4375 -2.015625 L 1.4375 -2.234375 L 2.359375 -2.234375 L 2.359375 -0.484375 C 2.359375 -0.359375 2.382812 -0.28125 2.4375 -0.25 C 2.5 -0.226562 2.566406 -0.21875 2.640625 -0.21875 L 2.671875 -0.21875 L 2.671875 0 L 1.84375 0 L 1.75 -0.296875 L 1.734375 -0.296875 C 1.660156 -0.171875 1.570312 -0.0820312 1.46875 -0.03125 C 1.363281 0.0195312 1.238281 0.046875 1.09375 0.046875 Z "/>
</g>
<g id="glyph-0-6">
<path d="M 0.84375 0.046875 C 0.65625 0.046875 0.5 -0.0078125 0.375 -0.125 C 0.25 -0.238281 0.1875 -0.410156 0.1875 -0.640625 C 0.1875 -0.859375 0.265625 -1.019531 0.421875 -1.125 C 0.578125 -1.238281 0.8125 -1.300781 1.125 -1.3125 L 1.46875 -1.328125 L 1.46875 -1.5625 C 1.46875 -1.71875 1.445312 -1.832031 1.40625 -1.90625 C 1.363281 -1.988281 1.285156 -2.03125 1.171875 -2.03125 C 1.066406 -2.03125 0.992188 -1.988281 0.953125 -1.90625 C 0.910156 -1.832031 0.890625 -1.722656 0.890625 -1.578125 C 0.710938 -1.578125 0.578125 -1.597656 0.484375 -1.640625 C 0.398438 -1.679688 0.359375 -1.753906 0.359375 -1.859375 C 0.359375 -1.960938 0.394531 -2.046875 0.46875 -2.109375 C 0.550781 -2.171875 0.65625 -2.21875 0.78125 -2.25 C 0.914062 -2.28125 1.0625 -2.296875 1.21875 -2.296875 C 1.507812 -2.296875 1.726562 -2.238281 1.875 -2.125 C 2.019531 -2.019531 2.09375 -1.835938 2.09375 -1.578125 L 2.09375 -0.515625 C 2.09375 -0.398438 2.113281 -0.320312 2.15625 -0.28125 C 2.195312 -0.238281 2.257812 -0.21875 2.34375 -0.21875 L 2.359375 -0.21875 L 2.359375 0 L 1.59375 0 L 1.5 -0.28125 L 1.46875 -0.28125 C 1.40625 -0.207031 1.34375 -0.144531 1.28125 -0.09375 C 1.226562 -0.0507812 1.164062 -0.0195312 1.09375 0 C 1.03125 0.03125 0.945312 0.046875 0.84375 0.046875 Z M 1.078125 -0.265625 C 1.191406 -0.265625 1.285156 -0.3125 1.359375 -0.40625 C 1.429688 -0.5 1.46875 -0.628906 1.46875 -0.796875 L 1.46875 -1.109375 L 1.28125 -1.09375 C 1.113281 -1.082031 0.992188 -1.035156 0.921875 -0.953125 C 0.859375 -0.878906 0.828125 -0.769531 0.828125 -0.625 C 0.828125 -0.382812 0.910156 -0.265625 1.078125 -0.265625 Z "/>
</g>
<g id="glyph-0-7">
<path d="M 0.078125 0 L 0.078125 -0.21875 L 0.109375 -0.21875 C 0.203125 -0.21875 0.273438 -0.234375 0.328125 -0.265625 C 0.390625 -0.304688 0.421875 -0.390625 0.421875 -0.515625 L 0.421875 -1.75 C 0.421875 -1.863281 0.394531 -1.9375 0.34375 -1.96875 C 0.289062 -2 0.21875 -2.015625 0.125 -2.015625 L 0.109375 -2.015625 L 0.109375 -2.234375 L 0.984375 -2.234375 L 1.03125 -1.9375 L 1.0625 -1.9375 C 1.125 -2.050781 1.203125 -2.140625 1.296875 -2.203125 C 1.398438 -2.265625 1.535156 -2.296875 1.703125 -2.296875 C 1.921875 -2.296875 2.085938 -2.226562 2.203125 -2.09375 C 2.316406 -1.96875 2.375 -1.765625 2.375 -1.484375 L 2.375 -0.515625 C 2.375 -0.390625 2.394531 -0.304688 2.4375 -0.265625 C 2.488281 -0.234375 2.5625 -0.21875 2.65625 -0.21875 L 2.671875 -0.21875 L 2.671875 0 L 1.75 0 L 1.75 -1.375 C 1.75 -1.550781 1.722656 -1.6875 1.671875 -1.78125 C 1.628906 -1.882812 1.546875 -1.9375 1.421875 -1.9375 C 1.328125 -1.9375 1.253906 -1.90625 1.203125 -1.84375 C 1.148438 -1.78125 1.113281 -1.695312 1.09375 -1.59375 C 1.070312 -1.5 1.0625 -1.398438 1.0625 -1.296875 L 1.0625 -0.5 C 1.0625 -0.375 1.082031 -0.296875 1.125 -0.265625 C 1.175781 -0.234375 1.25 -0.21875 1.34375 -0.21875 L 1.359375 -0.21875 L 1.359375 0 Z "/>
</g>
</g>
</defs>
<g fill="rgb(20.392157%, 82.745098%, 60%)" fill-opacity="1">
<use xlink:href="#glyph-0-0" x="30" y="24.454102"/>
<use xlink:href="#glyph-0-1" x="33" y="24.454102"/>
<use xlink:href="#glyph-0-2" x="35" y="24.454102"/>
<use xlink:href="#glyph-0-3" x="37" y="24.454102"/>
<use xlink:href="#glyph-0-4" x="39" y="24.454102"/>
<use xlink:href="#glyph-0-5" x="42" y="24.454102"/>
<use xlink:href="#glyph-0-6" x="45" y="24.454102"/>
<use xlink:href="#glyph-0-7" x="48" y="24.454102"/>
<use xlink:href="#glyph-0-2" x="51" y="24.454102"/>
</g>
</svg>
