<?xml version="1.0" encoding="UTF-8"?>
<svg xmlns="http://www.w3.org/2000/svg" xmlns:xlink="http://www.w3.org/1999/xlink" width="1920" height="1080" viewBox="0 0 1920 1080">
<defs>
<g>
<g id="glyph-0-0">
<path d="M 0.390625 0 L 0.390625 -0.859375 L 1.6875 -2.265625 C 2.039062 -2.640625 2.316406 -2.96875 2.515625 -3.25 C 2.710938 -3.53125 2.851562 -3.796875 2.9375 -4.046875 C 3.019531 -4.304688 3.0625 -4.582031 3.0625 -4.875 C 3.0625 -5.238281 3 -5.5 2.875 -5.65625 C 2.75 -5.8125 2.578125 -5.890625 2.359375 -5.890625 C 2.054688 -5.890625 1.84375 -5.769531 1.71875 -5.53125 C 1.59375 -5.289062 1.53125 -4.914062 1.53125 -4.40625 C 1.34375 -4.40625 1.160156 -4.425781 0.984375 -4.46875 C 0.816406 -4.507812 0.679688 -4.585938 0.578125 -4.703125 C 0.484375 -4.816406 0.4375 -4.972656 0.4375 -5.171875 C 0.4375 -5.390625 0.503906 -5.59375 0.640625 -5.78125 C 0.785156 -5.976562 1 -6.132812 1.28125 -6.25 C 1.570312 -6.375 1.929688 -6.4375 2.359375 -6.4375 C 3.023438 -6.4375 3.53125 -6.296875 3.875 -6.015625 C 4.226562 -5.734375 4.40625 -5.363281 4.40625 -4.90625 C 4.40625 -4.65625 4.359375 -4.40625 4.265625 -4.15625 C 4.171875 -3.914062 4.003906 -3.648438 3.765625 -3.359375 C 3.523438 -3.066406 3.1875 -2.722656 2.75 -2.328125 L 1.328125 -0.984375 L 3.296875 -0.984375 C 3.472656 -0.984375 3.625 -1.035156 3.75 -1.140625 C 3.882812 -1.242188 3.976562 -1.394531 4.03125 -1.59375 L 4.09375 -1.859375 L 4.625 -1.859375 L 4.578125 0 Z "/>
</g>
<g id="glyph-0-1">
</g>
<g id="glyph-0-2">
<path d="M 0 1.078125 L 1.9375 -6.75 L 2.5625 -6.75 L 0.640625 1.078125 Z "/>
</g>
<g id="glyph-0-3">
<path d="M 1.625 0 L 1.625 -0.46875 L 1.875 -0.46875 C 2.070312 -0.46875 2.242188 -0.503906 2.390625 -0.578125 C 2.535156 -0.648438 2.609375 -0.828125 2.609375 -1.109375 L 2.609375 -1.65625 L 0.140625 -1.65625 L 0.140625 -2.203125 L 2.671875 -6.34375 L 3.90625 -6.34375 L 3.90625 -2.234375 L 4.828125 -2.234375 L 4.828125 -1.65625 L 3.90625 -1.65625 L 3.90625 -1.109375 C 3.90625 -0.828125 3.972656 -0.648438 4.109375 -0.578125 C 4.253906 -0.503906 4.425781 -0.46875 4.625 -0.46875 L 4.75 -0.46875 L 4.75 0 Z M 0.828125 -2.234375 L 2.609375 -2.234375 L 2.609375 -3.796875 C 2.609375 -4.054688 2.609375 -4.335938 2.609375 -4.640625 C 2.617188 -4.941406 2.640625 -5.226562 2.671875 -5.5 C 2.640625 -5.425781 2.59375 -5.328125 2.53125 -5.203125 C 2.46875 -5.085938 2.398438 -4.960938 2.328125 -4.828125 C 2.253906 -4.691406 2.1875 -4.566406 2.125 -4.453125 C 2.0625 -4.335938 2.015625 -4.253906 1.984375 -4.203125 Z "/>
</g>
</g>
</defs>
<g fill="rgb(65.490196%, 54.509804%, 98.039216%)" fill-opacity="1">
<use xlink:href="#glyph-0-0" x="30" y="29.50293"/>
<use xlink:href="#glyph-0-1" x="35" y="29.50293"/>
<use xlink:href="#glyph-0-2" x="37" y="29.50293"/>
<use xlink:href="#glyph-0-1" x="40" y="29.50293"/>
<use xlink:href="#glyph-0-3" x="42" y="29.50293"/>
</g>
</svg>
