<?xml version="1.0" encoding="UTF-8"?>
<svg xmlns="http://www.w3.org/2000/svg" xmlns:xlink="http://www.w3.org/1999/xlink" width="1920" height="1080" viewBox="0 0 1920 1080">
<defs>
<g>
<g id="glyph-0-0">
<path d="M 0.09375 0 L 0.09375 -0.109375 L 0.125 -0.109375 C 0.1875 -0.109375 0.234375 -0.117188 0.265625 -0.140625 C 0.304688 -0.160156 0.328125 -0.207031 0.328125 -0.28125 L 0.328125 -1.515625 C 0.328125 -1.585938 0.304688 -1.632812 0.265625 -1.65625 C 0.222656 -1.675781 0.175781 -1.6875 0.125 -1.6875 L 0.09375 -1.6875 L 0.09375 -1.78125 L 0.859375 -1.78125 C 1.117188 -1.78125 1.316406 -1.703125 1.453125 -1.546875 C 1.597656 -1.390625 1.671875 -1.171875 1.671875 -0.890625 C 1.671875 -0.710938 1.640625 -0.554688 1.578125 -0.421875 C 1.523438 -0.285156 1.4375 -0.179688 1.3125 -0.109375 C 1.1875 -0.0351562 1.035156 0 0.859375 0 Z M 0.796875 -0.125 C 0.992188 -0.125 1.140625 -0.191406 1.234375 -0.328125 C 1.335938 -0.460938 1.390625 -0.648438 1.390625 -0.890625 C 1.390625 -1.140625 1.34375 -1.328125 1.25 -1.453125 C 1.15625 -1.585938 1.007812 -1.65625 0.8125 -1.65625 L 0.578125 -1.65625 L 0.578125 -0.125 Z "/>
</g>
<g id="glyph-0-1">
<path d="M 0.09375 0 L 0.09375 -0.109375 L 0.125 -0.109375 C 0.175781 -0.109375 0.222656 -0.113281 0.265625 -0.125 C 0.304688 -0.144531 0.328125 -0.191406 0.328125 -0.265625 L 0.328125 -1.515625 C 0.328125 -1.585938 0.304688 -1.632812 0.265625 -1.65625 C 0.222656 -1.675781 0.175781 -1.6875 0.125 -1.6875 L 0.09375 -1.6875 L 0.09375 -1.78125 L 0.765625 -1.78125 C 1.191406 -1.78125 1.40625 -1.617188 1.40625 -1.296875 C 1.40625 -1.210938 1.382812 -1.140625 1.34375 -1.078125 C 1.3125 -1.015625 1.265625 -0.960938 1.203125 -0.921875 C 1.148438 -0.890625 1.097656 -0.863281 1.046875 -0.84375 L 1.390625 -0.3125 C 1.429688 -0.238281 1.46875 -0.1875 1.5 -0.15625 C 1.539062 -0.125 1.585938 -0.109375 1.640625 -0.109375 L 1.65625 -0.109375 L 1.65625 0 L 1.625 0 C 1.519531 0 1.4375 -0.00390625 1.375 -0.015625 C 1.320312 -0.0234375 1.273438 -0.046875 1.234375 -0.078125 C 1.203125 -0.109375 1.164062 -0.15625 1.125 -0.21875 L 0.796875 -0.78125 L 0.578125 -0.78125 L 0.578125 -0.265625 C 0.578125 -0.191406 0.597656 -0.144531 0.640625 -0.125 C 0.679688 -0.113281 0.734375 -0.109375 0.796875 -0.109375 L 0.828125 -0.109375 L 0.828125 0 Z M 0.765625 -0.90625 C 0.910156 -0.90625 1.007812 -0.9375 1.0625 -1 C 1.113281 -1.0625 1.140625 -1.160156 1.140625 -1.296875 C 1.140625 -1.429688 1.109375 -1.523438 1.046875 -1.578125 C 0.992188 -1.640625 0.894531 -1.671875 0.75 -1.671875 L 0.578125 -1.671875 L 0.578125 -0.90625 Z "/>
</g>
<g id="glyph-0-2">
<path d="M 0 0 L 0 -0.109375 L 0.046875 -0.109375 C 0.0976562 -0.109375 0.132812 -0.117188 0.15625 -0.140625 C 0.175781 -0.171875 0.203125 -0.222656 0.234375 -0.296875 L 0.796875 -1.78125 L 0.984375 -1.78125 L 1.546875 -0.234375 C 1.566406 -0.179688 1.585938 -0.144531 1.609375 -0.125 C 1.640625 -0.113281 1.679688 -0.109375 1.734375 -0.109375 L 1.765625 -0.109375 L 1.765625 0 L 1.078125 0 L 1.078125 -0.109375 L 1.125 -0.109375 C 1.226562 -0.109375 1.28125 -0.144531 1.28125 -0.21875 C 1.28125 -0.238281 1.273438 -0.253906 1.265625 -0.265625 C 1.265625 -0.285156 1.265625 -0.300781 1.265625 -0.3125 L 1.15625 -0.59375 L 0.5 -0.59375 L 0.40625 -0.328125 C 0.394531 -0.296875 0.390625 -0.265625 0.390625 -0.234375 C 0.390625 -0.148438 0.441406 -0.109375 0.546875 -0.109375 L 0.609375 -0.109375 L 0.609375 0 Z M 0.546875 -0.71875 L 1.125 -0.71875 L 0.96875 -1.15625 C 0.9375 -1.226562 0.910156 -1.296875 0.890625 -1.359375 C 0.867188 -1.429688 0.851562 -1.5 0.84375 -1.5625 C 0.820312 -1.5 0.800781 -1.4375 0.78125 -1.375 C 0.769531 -1.320312 0.75 -1.257812 0.71875 -1.1875 Z "/>
</g>
<g id="glyph-0-3">
<path d="M 0.09375 0 L 0.09375 -0.109375 L 0.125 -0.109375 C 0.1875 -0.109375 0.234375 -0.117188 0.265625 -0.140625 C 0.304688 -0.160156 0.328125 -0.207031 0.328125 -0.28125 L 0.328125 -1.5 C 0.328125 -1.582031 0.304688 -1.632812 0.265625 -1.65625 C 0.234375 -1.675781 0.1875 -1.6875 0.125 -1.6875 L 0.09375 -1.6875 L 0.09375 -1.78125 L 0.828125 -1.78125 L 0.828125 -1.6875 L 0.796875 -1.6875 C 0.734375 -1.6875 0.679688 -1.675781 0.640625 -1.65625 C 0.597656 -1.632812 0.578125 -1.582031 0.578125 -1.5 L 0.578125 -0.28125 C 0.578125 -0.207031 0.597656 -0.160156 0.640625 -0.140625 C 0.679688 -0.117188 0.734375 -0.109375 0.796875 -0.109375 L 0.828125 -0.109375 L 0.828125 0 Z "/>
</g>
<g id="glyph-0-4">
<path d="M 0.09375 0 L 0.09375 -0.109375 L 0.125 -0.109375 C 0.1875 -0.109375 0.234375 -0.117188 0.265625 -0.140625 C 0.304688 -0.160156 0.328125 -0.207031 0.328125 -0.28125 L 0.328125 -1.515625 C 0.328125 -1.585938 0.304688 -1.632812 0.265625 -1.65625 C 0.222656 -1.675781 0.175781 -1.6875 0.125 -1.6875 L 0.09375 -1.6875 L 0.09375 -1.78125 L 0.546875 -1.78125 L 1.453125 -0.40625 L 1.453125 -1.515625 C 1.453125 -1.585938 1.429688 -1.632812 1.390625 -1.65625 C 1.347656 -1.675781 1.300781 -1.6875 1.25 -1.6875 L 1.203125 -1.6875 L 1.203125 -1.78125 L 1.84375 -1.78125 L 1.84375 -1.6875 L 1.8125 -1.6875 C 1.75 -1.6875 1.695312 -1.675781 1.65625 -1.65625 C 1.613281 -1.632812 1.59375 -1.582031 1.59375 -1.5 L 1.59375 0 L 1.421875 0 L 0.484375 -1.4375 L 0.484375 -0.28125 C 0.484375 -0.207031 0.503906 -0.160156 0.546875 -0.140625 C 0.585938 -0.117188 0.632812 -0.109375 0.6875 -0.109375 L 0.71875 -0.109375 L 0.71875 0 Z "/>
</g>
<g id="glyph-0-5">
</g>
<g id="glyph-0-6">
<path d="M 0.0625 0 L 0.0625 -0.109375 L 0.09375 -0.109375 C 0.144531 -0.109375 0.191406 -0.117188 0.234375 -0.140625 C 0.273438 -0.160156 0.296875 -0.207031 0.296875 -0.28125 L 0.296875 -1.0625 C 0.296875 -1.132812 0.273438 -1.179688 0.234375 -1.203125 C 0.191406 -1.222656 0.144531 -1.234375 0.09375 -1.234375 L 0.078125 -1.234375 L 0.078125 -1.34375 L 0.484375 -1.34375 L 0.515625 -1.140625 L 0.53125 -1.140625 C 0.582031 -1.234375 0.640625 -1.289062 0.703125 -1.3125 C 0.765625 -1.34375 0.835938 -1.359375 0.921875 -1.359375 C 1.054688 -1.359375 1.160156 -1.316406 1.234375 -1.234375 C 1.304688 -1.160156 1.34375 -1.039062 1.34375 -0.875 L 1.34375 -0.28125 C 1.34375 -0.207031 1.359375 -0.160156 1.390625 -0.140625 C 1.421875 -0.117188 1.46875 -0.109375 1.53125 -0.109375 L 1.546875 -0.109375 L 1.546875 0 L 1.109375 0 L 1.109375 -0.859375 C 1.109375 -0.972656 1.085938 -1.054688 1.046875 -1.109375 C 1.003906 -1.171875 0.929688 -1.203125 0.828125 -1.203125 C 0.753906 -1.203125 0.695312 -1.179688 0.65625 -1.140625 C 0.613281 -1.109375 0.582031 -1.0625 0.5625 -1 C 0.539062 -0.9375 0.53125 -0.867188 0.53125 -0.796875 L 0.53125 -0.265625 C 0.53125 -0.191406 0.546875 -0.144531 0.578125 -0.125 C 0.617188 -0.113281 0.671875 -0.109375 0.734375 -0.109375 L 0.75 -0.109375 L 0.75 0 Z "/>
</g>
<g id="glyph-0-7">
<path d="M 0.15625 -1.0625 L 0.15625 -1.21875 L 1.234375 -1.21875 L 1.234375 -1.0625 Z M 0.15625 -0.578125 L 0.15625 -0.71875 L 1.234375 -0.71875 L 1.234375 -0.578125 Z "/>
</g>
<g id="glyph-0-8">
<path d="M 0.53125 0 L 0.53125 -0.109375 L 0.609375 -0.109375 C 0.660156 -0.109375 0.707031 -0.117188 0.75 -0.140625 C 0.789062 -0.160156 0.8125 -0.207031 0.8125 -0.28125 L 0.8125 -0.484375 L 0.046875 -0.484375 L 0.046875 -0.59375 L 0.8125 -1.78125 L 1.046875 -1.78125 L 1.046875 -0.625 L 1.359375 -0.625 L 1.359375 -0.484375 L 1.046875 -0.484375 L 1.046875 -0.28125 C 1.046875 -0.207031 1.066406 -0.160156 1.109375 -0.140625 C 1.148438 -0.117188 1.195312 -0.109375 1.25 -0.109375 L 1.296875 -0.109375 L 1.296875 0 Z M 0.21875 -0.625 L 0.8125 -0.625 L 0.8125 -1.09375 C 0.8125 -1.144531 0.8125 -1.195312 0.8125 -1.25 C 0.8125 -1.3125 0.8125 -1.375 0.8125 -1.4375 C 0.820312 -1.5 0.828125 -1.554688 0.828125 -1.609375 C 0.816406 -1.585938 0.800781 -1.5625 0.78125 -1.53125 C 0.769531 -1.5 0.75 -1.460938 0.71875 -1.421875 C 0.695312 -1.390625 0.675781 -1.351562 0.65625 -1.3125 C 0.632812 -1.28125 0.617188 -1.25 0.609375 -1.21875 Z "/>
</g>
</g>
</defs>
<g fill="rgb(20.392157%, 82.745098%, 60%)" fill-opacity="1">
<use xlink:href="#glyph-0-0" x="30" y="22.672852"/>
<use xlink:href="#glyph-0-1" x="32" y="22.672852"/>
<use xlink:href="#glyph-0-2" x="34" y="22.672852"/>
<use xlink:href="#glyph-0-3" x="36" y="22.672852"/>
<use xlink:href="#glyph-0-4" x="37" y="22.672852"/>
<use xlink:href="#glyph-0-5" x="39" y="22.672852"/>
</g>
<g fill="rgb(20.392157%, 82.745098%, 60%)" fill-opacity="1">
<use xlink:href="#glyph-0-6" x="30" y="26.047852"/>
<use xlink:href="#glyph-0-7" x="32" y="26.047852"/>
<use xlink:href="#glyph-0-8" x="33" y="26.047852"/>
</g>
</svg>
