<?xml version="1.0" encoding="UTF-8"?>
<svg xmlns="http://www.w3.org/2000/svg" xmlns:xlink="http://www.w3.org/1999/xlink" width="1920" height="1080" viewBox="0 0 1920 1080">
<defs>
<g>
<g id="glyph-0-0">
<path d="M 0.09375 0 L 0.09375 -0.109375 L 0.125 -0.109375 C 0.175781 -0.109375 0.222656 -0.113281 0.265625 -0.125 C 0.304688 -0.144531 0.328125 -0.191406 0.328125 -0.265625 L 0.328125 -1.515625 C 0.328125 -1.585938 0.304688 -1.632812 0.265625 -1.65625 C 0.222656 -1.675781 0.175781 -1.6875 0.125 -1.6875 L 0.09375 -1.6875 L 0.09375 -1.78125 L 1.359375 -1.78125 L 1.375 -1.34375 L 1.234375 -1.34375 L 1.21875 -1.453125 C 1.21875 -1.515625 1.195312 -1.5625 1.15625 -1.59375 C 1.125 -1.632812 1.070312 -1.65625 1 -1.65625 L 0.578125 -1.65625 L 0.578125 -0.9375 L 1.1875 -0.9375 L 1.1875 -0.8125 L 0.578125 -0.8125 L 0.578125 -0.28125 C 0.578125 -0.207031 0.597656 -0.160156 0.640625 -0.140625 C 0.679688 -0.117188 0.734375 -0.109375 0.796875 -0.109375 L 0.875 -0.109375 L 0.875 0 Z "/>
</g>
<g id="glyph-0-1">
<path d="M 0.09375 0 L 0.09375 -0.109375 L 0.125 -0.109375 C 0.1875 -0.109375 0.234375 -0.117188 0.265625 -0.140625 C 0.304688 -0.160156 0.328125 -0.207031 0.328125 -0.28125 L 0.328125 -1.5 C 0.328125 -1.582031 0.304688 -1.632812 0.265625 -1.65625 C 0.234375 -1.675781 0.1875 -1.6875 0.125 -1.6875 L 0.09375 -1.6875 L 0.09375 -1.78125 L 0.828125 -1.78125 L 0.828125 -1.6875 L 0.796875 -1.6875 C 0.734375 -1.6875 0.679688 -1.675781 0.640625 -1.65625 C 0.597656 -1.632812 0.578125 -1.585938 0.578125 -1.515625 L 0.578125 -0.125 L 1.078125 -0.125 C 1.128906 -0.125 1.171875 -0.132812 1.203125 -0.15625 C 1.234375 -0.175781 1.253906 -0.203125 1.265625 -0.234375 C 1.285156 -0.273438 1.296875 -0.3125 1.296875 -0.34375 L 1.328125 -0.53125 L 1.453125 -0.53125 L 1.4375 0 Z "/>
</g>
<g id="glyph-0-2">
<path d="M 0.90625 0.03125 C 0.707031 0.03125 0.550781 -0.0078125 0.4375 -0.09375 C 0.332031 -0.1875 0.28125 -0.335938 0.28125 -0.546875 L 0.28125 -1.515625 C 0.28125 -1.585938 0.257812 -1.632812 0.21875 -1.65625 C 0.175781 -1.675781 0.125 -1.6875 0.0625 -1.6875 L 0.03125 -1.6875 L 0.03125 -1.78125 L 0.765625 -1.78125 L 0.765625 -1.6875 L 0.734375 -1.6875 C 0.671875 -1.6875 0.617188 -1.675781 0.578125 -1.65625 C 0.546875 -1.632812 0.53125 -1.582031 0.53125 -1.5 L 0.53125 -0.53125 C 0.53125 -0.382812 0.566406 -0.28125 0.640625 -0.21875 C 0.722656 -0.15625 0.820312 -0.125 0.9375 -0.125 C 1.082031 -0.125 1.1875 -0.160156 1.25 -0.234375 C 1.320312 -0.304688 1.359375 -0.398438 1.359375 -0.515625 L 1.359375 -1.515625 C 1.359375 -1.585938 1.335938 -1.632812 1.296875 -1.65625 C 1.265625 -1.675781 1.21875 -1.6875 1.15625 -1.6875 L 1.125 -1.6875 L 1.125 -1.78125 L 1.75 -1.78125 L 1.75 -1.6875 L 1.71875 -1.6875 C 1.664062 -1.6875 1.617188 -1.675781 1.578125 -1.65625 C 1.535156 -1.632812 1.515625 -1.582031 1.515625 -1.5 L 1.515625 -0.515625 C 1.515625 -0.347656 1.460938 -0.210938 1.359375 -0.109375 C 1.253906 -0.015625 1.101562 0.03125 0.90625 0.03125 Z "/>
</g>
<g id="glyph-0-3">
<path d="M 0.625 0.03125 C 0.457031 0.03125 0.332031 0 0.25 -0.0625 C 0.164062 -0.132812 0.125 -0.222656 0.125 -0.328125 C 0.125 -0.378906 0.140625 -0.421875 0.171875 -0.453125 C 0.203125 -0.484375 0.242188 -0.5 0.296875 -0.5 C 0.304688 -0.425781 0.320312 -0.359375 0.34375 -0.296875 C 0.363281 -0.234375 0.394531 -0.179688 0.4375 -0.140625 C 0.488281 -0.109375 0.554688 -0.09375 0.640625 -0.09375 C 0.753906 -0.09375 0.84375 -0.117188 0.90625 -0.171875 C 0.96875 -0.234375 1 -0.3125 1 -0.40625 C 1 -0.46875 0.984375 -0.519531 0.953125 -0.5625 C 0.929688 -0.601562 0.890625 -0.644531 0.828125 -0.6875 C 0.773438 -0.726562 0.703125 -0.765625 0.609375 -0.796875 C 0.453125 -0.859375 0.332031 -0.929688 0.25 -1.015625 C 0.175781 -1.109375 0.140625 -1.222656 0.140625 -1.359375 C 0.140625 -1.453125 0.164062 -1.53125 0.21875 -1.59375 C 0.269531 -1.664062 0.332031 -1.71875 0.40625 -1.75 C 0.488281 -1.789062 0.582031 -1.8125 0.6875 -1.8125 C 0.84375 -1.8125 0.957031 -1.78125 1.03125 -1.71875 C 1.113281 -1.664062 1.15625 -1.601562 1.15625 -1.53125 C 1.15625 -1.476562 1.140625 -1.4375 1.109375 -1.40625 C 1.078125 -1.382812 1.03125 -1.375 0.96875 -1.375 C 0.96875 -1.414062 0.957031 -1.460938 0.9375 -1.515625 C 0.914062 -1.566406 0.882812 -1.609375 0.84375 -1.640625 C 0.8125 -1.671875 0.757812 -1.6875 0.6875 -1.6875 C 0.59375 -1.6875 0.515625 -1.660156 0.453125 -1.609375 C 0.398438 -1.554688 0.375 -1.488281 0.375 -1.40625 C 0.375 -1.332031 0.382812 -1.269531 0.40625 -1.21875 C 0.4375 -1.175781 0.476562 -1.140625 0.53125 -1.109375 C 0.59375 -1.078125 0.671875 -1.039062 0.765625 -1 C 0.910156 -0.9375 1.023438 -0.863281 1.109375 -0.78125 C 1.191406 -0.707031 1.234375 -0.609375 1.234375 -0.484375 C 1.234375 -0.316406 1.175781 -0.1875 1.0625 -0.09375 C 0.957031 -0.0078125 0.8125 0.03125 0.625 0.03125 Z "/>
</g>
<g id="glyph-0-4">
<path d="M 0.09375 0 L 0.09375 -0.109375 L 0.125 -0.109375 C 0.1875 -0.109375 0.234375 -0.117188 0.265625 -0.140625 C 0.304688 -0.160156 0.328125 -0.207031 0.328125 -0.28125 L 0.328125 -1.515625 C 0.328125 -1.585938 0.304688 -1.632812 0.265625 -1.65625 C 0.222656 -1.675781 0.175781 -1.6875 0.125 -1.6875 L 0.09375 -1.6875 L 0.09375 -1.78125 L 0.828125 -1.78125 L 0.828125 -1.6875 L 0.796875 -1.6875 C 0.734375 -1.6875 0.679688 -1.675781 0.640625 -1.65625 C 0.597656 -1.632812 0.578125 -1.582031 0.578125 -1.5 L 0.578125 -1 L 1.390625 -1 L 1.390625 -1.5 C 1.390625 -1.582031 1.367188 -1.632812 1.328125 -1.65625 C 1.296875 -1.675781 1.25 -1.6875 1.1875 -1.6875 L 1.15625 -1.6875 L 1.15625 -1.78125 L 1.890625 -1.78125 L 1.890625 -1.6875 L 1.859375 -1.6875 C 1.796875 -1.6875 1.742188 -1.675781 1.703125 -1.65625 C 1.671875 -1.632812 1.65625 -1.582031 1.65625 -1.5 L 1.65625 -0.265625 C 1.65625 -0.191406 1.671875 -0.144531 1.703125 -0.125 C 1.742188 -0.113281 1.796875 -0.109375 1.859375 -0.109375 L 1.890625 -0.109375 L 1.890625 0 L 1.15625 0 L 1.15625 -0.109375 L 1.1875 -0.109375 C 1.25 -0.109375 1.296875 -0.117188 1.328125 -0.140625 C 1.367188 -0.160156 1.390625 -0.207031 1.390625 -0.28125 L 1.390625 -0.875 L 0.578125 -0.875 L 0.578125 -0.28125 C 0.578125 -0.207031 0.597656 -0.160156 0.640625 -0.140625 C 0.679688 -0.117188 0.734375 -0.109375 0.796875 -0.109375 L 0.828125 -0.109375 L 0.828125 0 Z "/>
</g>
<g id="glyph-0-5">
</g>
<g id="glyph-0-6">
<path d="M 0.15625 0 L 0.15625 -0.1875 L 0.5625 -0.671875 C 0.65625 -0.765625 0.726562 -0.847656 0.78125 -0.921875 C 0.832031 -1.003906 0.867188 -1.078125 0.890625 -1.140625 C 0.910156 -1.210938 0.921875 -1.289062 0.921875 -1.375 C 0.921875 -1.46875 0.898438 -1.539062 0.859375 -1.59375 C 0.816406 -1.65625 0.753906 -1.6875 0.671875 -1.6875 C 0.597656 -1.6875 0.539062 -1.664062 0.5 -1.625 C 0.457031 -1.59375 0.425781 -1.546875 0.40625 -1.484375 C 0.394531 -1.429688 0.390625 -1.375 0.390625 -1.3125 C 0.335938 -1.3125 0.289062 -1.320312 0.25 -1.34375 C 0.207031 -1.363281 0.1875 -1.40625 0.1875 -1.46875 C 0.1875 -1.570312 0.222656 -1.65625 0.296875 -1.71875 C 0.378906 -1.78125 0.503906 -1.8125 0.671875 -1.8125 C 0.828125 -1.8125 0.945312 -1.769531 1.03125 -1.6875 C 1.125 -1.613281 1.171875 -1.515625 1.171875 -1.390625 C 1.171875 -1.273438 1.132812 -1.160156 1.0625 -1.046875 C 0.988281 -0.941406 0.890625 -0.816406 0.765625 -0.671875 L 0.34375 -0.203125 L 0.921875 -0.203125 C 0.992188 -0.203125 1.039062 -0.21875 1.0625 -0.25 C 1.09375 -0.289062 1.113281 -0.335938 1.125 -0.390625 L 1.140625 -0.4375 L 1.234375 -0.4375 L 1.234375 0 Z "/>
</g>
<g id="glyph-0-7">
<path d="M 0.0625 0 L 0.0625 -0.109375 L 0.09375 -0.109375 C 0.144531 -0.109375 0.191406 -0.117188 0.234375 -0.140625 C 0.273438 -0.160156 0.296875 -0.207031 0.296875 -0.28125 L 0.296875 -1.0625 C 0.296875 -1.132812 0.273438 -1.179688 0.234375 -1.203125 C 0.191406 -1.222656 0.144531 -1.234375 0.09375 -1.234375 L 0.078125 -1.234375 L 0.078125 -1.34375 L 0.484375 -1.34375 L 0.515625 -1.140625 L 0.53125 -1.140625 C 0.582031 -1.234375 0.640625 -1.289062 0.703125 -1.3125 C 0.765625 -1.34375 0.835938 -1.359375 0.921875 -1.359375 C 1.054688 -1.359375 1.160156 -1.316406 1.234375 -1.234375 C 1.304688 -1.160156 1.34375 -1.039062 1.34375 -0.875 L 1.34375 -0.28125 C 1.34375 -0.207031 1.359375 -0.160156 1.390625 -0.140625 C 1.421875 -0.117188 1.46875 -0.109375 1.53125 -0.109375 L 1.546875 -0.109375 L 1.546875 0 L 1.109375 0 L 1.109375 -0.859375 C 1.109375 -0.972656 1.085938 -1.054688 1.046875 -1.109375 C 1.003906 -1.171875 0.929688 -1.203125 0.828125 -1.203125 C 0.753906 -1.203125 0.695312 -1.179688 0.65625 -1.140625 C 0.613281 -1.109375 0.582031 -1.0625 0.5625 -1 C 0.539062 -0.9375 0.53125 -0.867188 0.53125 -0.796875 L 0.53125 -0.265625 C 0.53125 -0.191406 0.546875 -0.144531 0.578125 -0.125 C 0.617188 -0.113281 0.671875 -0.109375 0.734375 -0.109375 L 0.75 -0.109375 L 0.75 0 Z "/>
</g>
<g id="glyph-0-8">
<path d="M 0.15625 -0.796875 L 0.15625 -1 L 1.28125 -1 L 1.28125 -0.796875 Z "/>
</g>
<g id="glyph-0-9">
<path d="M 0.234375 0 L 0.234375 -0.109375 L 0.40625 -0.109375 C 0.46875 -0.109375 0.515625 -0.117188 0.546875 -0.140625 C 0.585938 -0.160156 0.609375 -0.207031 0.609375 -0.28125 L 0.609375 -1.59375 C 0.546875 -1.519531 0.488281 -1.457031 0.4375 -1.40625 C 0.382812 -1.363281 0.335938 -1.34375 0.296875 -1.34375 C 0.253906 -1.34375 0.222656 -1.351562 0.203125 -1.375 C 0.179688 -1.394531 0.171875 -1.425781 0.171875 -1.46875 C 0.210938 -1.488281 0.257812 -1.507812 0.3125 -1.53125 C 0.375 -1.5625 0.445312 -1.609375 0.53125 -1.671875 L 0.703125 -1.796875 L 0.859375 -1.796875 L 0.859375 -0.28125 C 0.859375 -0.207031 0.878906 -0.160156 0.921875 -0.140625 C 0.960938 -0.117188 1.007812 -0.109375 1.0625 -0.109375 L 1.1875 -0.109375 L 1.1875 0 Z "/>
</g>
<g id="glyph-0-10">
<path d="M 0.15625 -1.0625 L 0.15625 -1.21875 L 1.234375 -1.21875 L 1.234375 -1.0625 Z M 0.15625 -0.578125 L 0.15625 -0.71875 L 1.234375 -0.71875 L 1.234375 -0.578125 Z "/>
</g>
<g id="glyph-0-11">
<path d="M 0.4375 0 L 1.03125 -1.578125 L 0.40625 -1.578125 C 0.320312 -1.578125 0.273438 -1.535156 0.265625 -1.453125 L 0.25 -1.328125 L 0.140625 -1.328125 L 0.15625 -1.78125 L 1.28125 -1.78125 L 1.28125 -1.71875 L 0.65625 0 Z "/>
</g>
</g>
</defs>
<g fill="rgb(98.431373%, 74.901961%, 14.117647%)" fill-opacity="1">
<use xlink:href="#glyph-0-0" x="30" y="22.672852"/>
<use xlink:href="#glyph-0-1" x="31" y="22.672852"/>
<use xlink:href="#glyph-0-2" x="33" y="22.672852"/>
<use xlink:href="#glyph-0-3" x="35" y="22.672852"/>
<use xlink:href="#glyph-0-4" x="36" y="22.672852"/>
<use xlink:href="#glyph-0-5" x="38" y="22.672852"/>
</g>
<g fill="rgb(98.431373%, 74.901961%, 14.117647%)" fill-opacity="1">
<use xlink:href="#glyph-0-6" x="30" y="26.047852"/>
<use xlink:href="#glyph-0-7" x="31" y="26.047852"/>
<use xlink:href="#glyph-0-8" x="33" y="26.047852"/>
<use xlink:href="#glyph-0-9" x="34" y="26.047852"/>
<use xlink:href="#glyph-0-10" x="35" y="26.047852"/>
<use xlink:href="#glyph-0-11" x="36" y="26.047852"/>
</g>
</svg>
