<?xml version="1.0" encoding="UTF-8"?>
<svg xmlns="http://www.w3.org/2000/svg" xmlns:xlink="http://www.w3.org/1999/xlink" width="1920" height="1080" viewBox="0 0 1920 1080">
<defs>
<g>
<g id="glyph-0-0">
<path d="M 0.109375 0 L 0.109375 -0.21875 L 0.265625 -0.21875 C 0.335938 -0.21875 0.394531 -0.238281 0.4375 -0.28125 C 0.476562 -0.320312 0.5 -0.382812 0.5 -0.46875 L 0.5 -2.515625 C 0.5 -2.609375 0.472656 -2.671875 0.421875 -2.703125 C 0.378906 -2.734375 0.320312 -2.75 0.25 -2.75 L 0.109375 -2.75 L 0.109375 -2.984375 L 1.515625 -2.984375 L 1.515625 -2.75 L 1.390625 -2.75 C 1.328125 -2.75 1.273438 -2.734375 1.234375 -2.703125 C 1.191406 -2.671875 1.171875 -2.609375 1.171875 -2.515625 L 1.171875 -1.6875 L 2.25 -1.6875 L 2.25 -2.5 C 2.25 -2.601562 2.226562 -2.671875 2.1875 -2.703125 C 2.144531 -2.734375 2.082031 -2.75 2 -2.75 L 1.90625 -2.75 L 1.90625 -2.984375 L 3.296875 -2.984375 L 3.296875 -2.75 L 3.15625 -2.75 C 3.082031 -2.75 3.019531 -2.734375 2.96875 -2.703125 C 2.925781 -2.671875 2.90625 -2.601562 2.90625 -2.5 L 2.90625 -0.46875 C 2.90625 -0.375 2.925781 -0.304688 2.96875 -0.265625 C 3.019531 -0.234375 3.082031 -0.21875 3.15625 -0.21875 L 3.296875 -0.21875 L 3.296875 0 L 1.90625 0 L 1.90625 -0.21875 L 2.015625 -0.21875 C 2.085938 -0.21875 2.144531 -0.238281 2.1875 -0.28125 C 2.226562 -0.320312 2.25 -0.390625 2.25 -0.484375 L 2.25 -1.421875 L 1.171875 -1.421875 L 1.171875 -0.46875 C 1.171875 -0.382812 1.191406 -0.320312 1.234375 -0.28125 C 1.273438 -0.238281 1.328125 -0.21875 1.390625 -0.21875 L 1.515625 -0.21875 L 1.515625 0 Z "/>
</g>
<g id="glyph-0-1">
<path d="M 1.265625 0.046875 C 0.929688 0.046875 0.671875 -0.046875 0.484375 -0.234375 C 0.296875 -0.429688 0.203125 -0.726562 0.203125 -1.125 C 0.203125 -1.519531 0.289062 -1.8125 0.46875 -2 C 0.65625 -2.195312 0.925781 -2.296875 1.28125 -2.296875 C 1.613281 -2.296875 1.875 -2.195312 2.0625 -2 C 2.257812 -1.8125 2.359375 -1.519531 2.359375 -1.125 C 2.359375 -0.726562 2.265625 -0.429688 2.078125 -0.234375 C 1.898438 -0.046875 1.628906 0.046875 1.265625 0.046875 Z M 1.28125 -0.21875 C 1.4375 -0.21875 1.546875 -0.296875 1.609375 -0.453125 C 1.679688 -0.609375 1.71875 -0.832031 1.71875 -1.125 C 1.71875 -1.425781 1.679688 -1.648438 1.609375 -1.796875 C 1.546875 -1.941406 1.4375 -2.015625 1.28125 -2.015625 C 1.113281 -2.015625 1 -1.941406 0.9375 -1.796875 C 0.875 -1.648438 0.84375 -1.425781 0.84375 -1.125 C 0.84375 -0.832031 0.875 -0.609375 0.9375 -0.453125 C 1 -0.296875 1.113281 -0.21875 1.28125 -0.21875 Z "/>
</g>
<g id="glyph-0-2">
<path d="M 0.953125 0.046875 C 0.660156 0.046875 0.453125 0.00390625 0.328125 -0.078125 C 0.203125 -0.171875 0.140625 -0.289062 0.140625 -0.4375 C 0.140625 -0.550781 0.175781 -0.628906 0.25 -0.671875 C 0.320312 -0.722656 0.40625 -0.75 0.5 -0.75 C 0.5 -0.394531 0.65625 -0.21875 0.96875 -0.21875 C 1.113281 -0.21875 1.21875 -0.242188 1.28125 -0.296875 C 1.34375 -0.359375 1.375 -0.429688 1.375 -0.515625 C 1.375 -0.597656 1.332031 -0.664062 1.25 -0.71875 C 1.175781 -0.769531 1.050781 -0.828125 0.875 -0.890625 C 0.71875 -0.941406 0.585938 -1 0.484375 -1.0625 C 0.378906 -1.125 0.300781 -1.195312 0.25 -1.28125 C 0.195312 -1.375 0.171875 -1.488281 0.171875 -1.625 C 0.171875 -1.84375 0.25 -2.003906 0.40625 -2.109375 C 0.570312 -2.222656 0.789062 -2.28125 1.0625 -2.28125 C 1.3125 -2.28125 1.492188 -2.238281 1.609375 -2.15625 C 1.722656 -2.082031 1.78125 -1.992188 1.78125 -1.890625 C 1.78125 -1.703125 1.648438 -1.609375 1.390625 -1.609375 C 1.390625 -1.742188 1.351562 -1.847656 1.28125 -1.921875 C 1.207031 -2.003906 1.113281 -2.046875 1 -2.046875 C 0.894531 -2.046875 0.8125 -2.019531 0.75 -1.96875 C 0.6875 -1.925781 0.65625 -1.863281 0.65625 -1.78125 C 0.65625 -1.6875 0.691406 -1.613281 0.765625 -1.5625 C 0.847656 -1.519531 0.984375 -1.460938 1.171875 -1.390625 C 1.316406 -1.335938 1.441406 -1.28125 1.546875 -1.21875 C 1.648438 -1.164062 1.726562 -1.09375 1.78125 -1 C 1.84375 -0.914062 1.875 -0.8125 1.875 -0.6875 C 1.875 -0.457031 1.789062 -0.273438 1.625 -0.140625 C 1.46875 -0.015625 1.242188 0.046875 0.953125 0.046875 Z "/>
</g>
<g id="glyph-0-3">
<path d="M 1.0625 0.046875 C 0.84375 0.046875 0.675781 0 0.5625 -0.09375 C 0.457031 -0.195312 0.40625 -0.375 0.40625 -0.625 L 0.40625 -1.953125 L 0.09375 -1.953125 L 0.09375 -2.171875 C 0.175781 -2.171875 0.253906 -2.1875 0.328125 -2.21875 C 0.398438 -2.25 0.457031 -2.289062 0.5 -2.34375 C 0.582031 -2.4375 0.644531 -2.570312 0.6875 -2.75 L 1.03125 -2.75 L 1.03125 -2.234375 L 1.5625 -2.234375 L 1.5625 -1.953125 L 1.03125 -1.953125 L 1.03125 -0.65625 C 1.03125 -0.53125 1.050781 -0.4375 1.09375 -0.375 C 1.132812 -0.320312 1.207031 -0.296875 1.3125 -0.296875 C 1.363281 -0.296875 1.414062 -0.296875 1.46875 -0.296875 C 1.519531 -0.304688 1.566406 -0.316406 1.609375 -0.328125 L 1.609375 -0.0625 C 1.566406 -0.0390625 1.492188 -0.0195312 1.390625 0 C 1.296875 0.03125 1.1875 0.046875 1.0625 0.046875 Z "/>
</g>
</g>
</defs>
<g fill="rgb(21.960784%, 74.117647%, 97.254902%)" fill-opacity="1">
<use xlink:href="#glyph-0-0" x="30" y="24.454102"/>
<use xlink:href="#glyph-0-1" x="33" y="24.454102"/>
<use xlink:href="#glyph-0-2" x="36" y="24.454102"/>
<use xlink:href="#glyph-0-3" x="38" y="24.454102"/>
</g>
</svg>
