<?xml version="1.0" encoding="UTF-8"?>
<svg xmlns="http://www.w3.org/2000/svg" xmlns:xlink="http://www.w3.org/1999/xlink" width="1920" height="1080" viewBox="0 0 1920 1080">
<defs>
<g>
<g id="glyph-0-0">
<path d="M 0.078125 0 L 0.078125 -0.15625 L 0.171875 -0.15625 C 0.234375 -0.15625 0.28125 -0.164062 0.3125 -0.1875 C 0.351562 -0.21875 0.375 -0.265625 0.375 -0.328125 L 0.375 -1.84375 C 0.375 -1.914062 0.351562 -1.960938 0.3125 -1.984375 C 0.28125 -2.015625 0.238281 -2.03125 0.1875 -2.03125 L 0.078125 -2.03125 L 0.078125 -2.1875 L 1.78125 -2.1875 L 1.796875 -1.625 L 1.59375 -1.625 L 1.578125 -1.765625 C 1.566406 -1.847656 1.539062 -1.90625 1.5 -1.9375 C 1.457031 -1.976562 1.40625 -2 1.34375 -2 L 0.859375 -2 L 0.859375 -1.15625 L 1.578125 -1.15625 L 1.578125 -0.984375 L 0.859375 -0.984375 L 0.859375 -0.34375 C 0.859375 -0.269531 0.875 -0.21875 0.90625 -0.1875 C 0.9375 -0.164062 0.988281 -0.15625 1.0625 -0.15625 L 1.203125 -0.15625 L 1.203125 0 Z "/>
</g>
<g id="glyph-0-1">
<path d="M 0.078125 0 L 0.078125 -0.15625 L 0.203125 -0.15625 C 0.242188 -0.15625 0.28125 -0.164062 0.3125 -0.1875 C 0.351562 -0.21875 0.375 -0.269531 0.375 -0.34375 L 0.375 -1.84375 C 0.375 -1.914062 0.351562 -1.960938 0.3125 -1.984375 C 0.28125 -2.015625 0.238281 -2.03125 0.1875 -2.03125 L 0.078125 -2.03125 L 0.078125 -2.1875 L 1.140625 -2.1875 L 1.140625 -2.03125 L 1.046875 -2.03125 C 0.984375 -2.03125 0.9375 -2.015625 0.90625 -1.984375 C 0.875 -1.960938 0.859375 -1.914062 0.859375 -1.84375 L 0.859375 -0.1875 L 1.421875 -0.1875 C 1.492188 -0.1875 1.550781 -0.207031 1.59375 -0.25 C 1.632812 -0.300781 1.664062 -0.367188 1.6875 -0.453125 L 1.734375 -0.6875 L 1.90625 -0.6875 L 1.890625 0 Z "/>
</g>
<g id="glyph-0-2">
<path d="M 1.171875 0.03125 C 1.003906 0.03125 0.859375 0.0078125 0.734375 -0.03125 C 0.609375 -0.0820312 0.507812 -0.160156 0.4375 -0.265625 C 0.375 -0.367188 0.34375 -0.503906 0.34375 -0.671875 L 0.34375 -1.84375 C 0.34375 -1.914062 0.316406 -1.960938 0.265625 -1.984375 C 0.222656 -2.015625 0.171875 -2.03125 0.109375 -2.03125 L 0.046875 -2.03125 L 0.046875 -2.1875 L 1.109375 -2.1875 L 1.109375 -2.03125 L 1.03125 -2.03125 C 0.976562 -2.03125 0.929688 -2.015625 0.890625 -1.984375 C 0.847656 -1.960938 0.828125 -1.910156 0.828125 -1.828125 L 0.828125 -0.640625 C 0.828125 -0.472656 0.863281 -0.351562 0.9375 -0.28125 C 1.019531 -0.21875 1.132812 -0.1875 1.28125 -0.1875 C 1.414062 -0.1875 1.519531 -0.222656 1.59375 -0.296875 C 1.675781 -0.378906 1.71875 -0.5 1.71875 -0.65625 L 1.71875 -1.84375 C 1.71875 -1.914062 1.695312 -1.960938 1.65625 -1.984375 C 1.613281 -2.015625 1.5625 -2.03125 1.5 -2.03125 L 1.4375 -2.03125 L 1.4375 -2.1875 L 2.234375 -2.1875 L 2.234375 -2.03125 L 2.171875 -2.03125 C 2.109375 -2.03125 2.054688 -2.015625 2.015625 -1.984375 C 1.972656 -1.960938 1.953125 -1.910156 1.953125 -1.828125 L 1.953125 -0.65625 C 1.953125 -0.445312 1.890625 -0.28125 1.765625 -0.15625 C 1.640625 -0.03125 1.441406 0.03125 1.171875 0.03125 Z "/>
</g>
<g id="glyph-0-3">
<path d="M 0.828125 0.03125 C 0.640625 0.03125 0.492188 0.0078125 0.390625 -0.03125 C 0.285156 -0.0703125 0.210938 -0.125 0.171875 -0.1875 C 0.128906 -0.257812 0.109375 -0.328125 0.109375 -0.390625 C 0.109375 -0.492188 0.140625 -0.566406 0.203125 -0.609375 C 0.265625 -0.660156 0.34375 -0.6875 0.4375 -0.6875 C 0.4375 -0.507812 0.476562 -0.375 0.5625 -0.28125 C 0.644531 -0.195312 0.75 -0.15625 0.875 -0.15625 C 0.988281 -0.15625 1.078125 -0.1875 1.140625 -0.25 C 1.210938 -0.3125 1.25 -0.390625 1.25 -0.484375 C 1.25 -0.585938 1.207031 -0.671875 1.125 -0.734375 C 1.039062 -0.796875 0.910156 -0.863281 0.734375 -0.9375 C 0.523438 -1.019531 0.375 -1.113281 0.28125 -1.21875 C 0.195312 -1.332031 0.15625 -1.46875 0.15625 -1.625 C 0.15625 -1.75 0.1875 -1.851562 0.25 -1.9375 C 0.320312 -2.03125 0.414062 -2.097656 0.53125 -2.140625 C 0.644531 -2.191406 0.773438 -2.21875 0.921875 -2.21875 C 1.066406 -2.21875 1.1875 -2.195312 1.28125 -2.15625 C 1.375 -2.125 1.445312 -2.078125 1.5 -2.015625 C 1.550781 -1.960938 1.578125 -1.90625 1.578125 -1.84375 C 1.578125 -1.78125 1.546875 -1.722656 1.484375 -1.671875 C 1.429688 -1.628906 1.335938 -1.609375 1.203125 -1.609375 C 1.203125 -1.671875 1.191406 -1.734375 1.171875 -1.796875 C 1.148438 -1.867188 1.113281 -1.925781 1.0625 -1.96875 C 1.007812 -2.007812 0.945312 -2.03125 0.875 -2.03125 C 0.78125 -2.03125 0.703125 -2.003906 0.640625 -1.953125 C 0.585938 -1.910156 0.5625 -1.84375 0.5625 -1.75 C 0.5625 -1.6875 0.570312 -1.628906 0.59375 -1.578125 C 0.625 -1.535156 0.675781 -1.488281 0.75 -1.4375 C 0.820312 -1.394531 0.925781 -1.347656 1.0625 -1.296875 C 1.28125 -1.203125 1.429688 -1.101562 1.515625 -1 C 1.609375 -0.894531 1.65625 -0.769531 1.65625 -0.625 C 1.65625 -0.488281 1.617188 -0.367188 1.546875 -0.265625 C 1.484375 -0.171875 1.390625 -0.0976562 1.265625 -0.046875 C 1.140625 0.00390625 0.992188 0.03125 0.828125 0.03125 Z "/>
</g>
<g id="glyph-0-4">
<path d="M 0.078125 0 L 0.078125 -0.15625 L 0.203125 -0.15625 C 0.242188 -0.15625 0.28125 -0.171875 0.3125 -0.203125 C 0.351562 -0.234375 0.375 -0.28125 0.375 -0.34375 L 0.375 -1.84375 C 0.375 -1.914062 0.351562 -1.960938 0.3125 -1.984375 C 0.28125 -2.015625 0.238281 -2.03125 0.1875 -2.03125 L 0.078125 -2.03125 L 0.078125 -2.1875 L 1.109375 -2.1875 L 1.109375 -2.03125 L 1.03125 -2.03125 C 0.976562 -2.03125 0.9375 -2.015625 0.90625 -1.984375 C 0.875 -1.960938 0.859375 -1.914062 0.859375 -1.84375 L 0.859375 -1.234375 L 1.65625 -1.234375 L 1.65625 -1.84375 C 1.65625 -1.914062 1.640625 -1.960938 1.609375 -1.984375 C 1.578125 -2.015625 1.53125 -2.03125 1.46875 -2.03125 L 1.40625 -2.03125 L 1.40625 -2.1875 L 2.421875 -2.1875 L 2.421875 -2.03125 L 2.3125 -2.03125 C 2.257812 -2.03125 2.21875 -2.015625 2.1875 -1.984375 C 2.15625 -1.960938 2.140625 -1.914062 2.140625 -1.84375 L 2.140625 -0.34375 C 2.140625 -0.28125 2.15625 -0.234375 2.1875 -0.203125 C 2.21875 -0.171875 2.257812 -0.15625 2.3125 -0.15625 L 2.421875 -0.15625 L 2.421875 0 L 1.40625 0 L 1.40625 -0.15625 L 1.46875 -0.15625 C 1.53125 -0.15625 1.578125 -0.171875 1.609375 -0.203125 C 1.640625 -0.234375 1.65625 -0.285156 1.65625 -0.359375 L 1.65625 -1.046875 L 0.859375 -1.046875 L 0.859375 -0.34375 C 0.859375 -0.28125 0.875 -0.234375 0.90625 -0.203125 C 0.9375 -0.171875 0.976562 -0.15625 1.03125 -0.15625 L 1.109375 -0.15625 L 1.109375 0 Z "/>
</g>
</g>
</defs>
<g fill="rgb(98.431373%, 74.901961%, 14.117647%)" fill-opacity="1">
<use xlink:href="#glyph-0-0" x="30" y="23.266602"/>
<use xlink:href="#glyph-0-1" x="32" y="23.266602"/>
<use xlink:href="#glyph-0-2" x="34" y="23.266602"/>
<use xlink:href="#glyph-0-3" x="36" y="23.266602"/>
<use xlink:href="#glyph-0-4" x="38" y="23.266602"/>
</g>
</svg>
