<?xml version="1.0" encoding="UTF-8"?>
<svg xmlns="http://www.w3.org/2000/svg" xmlns:xlink="http://www.w3.org/1999/xlink" width="1920" height="1080" viewBox="0 0 1920 1080">
<defs>
<g>
<g id="glyph-0-0">
<path d="M 0.171875 0 L 0.171875 -0.46875 L 0.21875 -0.46875 C 0.414062 -0.46875 0.570312 -0.503906 0.6875 -0.578125 C 0.8125 -0.648438 0.875 -0.828125 0.875 -1.109375 L 0.875 -3.6875 C 0.875 -3.945312 0.816406 -4.113281 0.703125 -4.1875 C 0.597656 -4.257812 0.445312 -4.296875 0.25 -4.296875 L 0.21875 -4.296875 L 0.21875 -4.765625 L 2 -4.765625 L 2.171875 -3.90625 L 2.21875 -3.90625 C 2.351562 -4.226562 2.515625 -4.46875 2.703125 -4.625 C 2.898438 -4.789062 3.179688 -4.875 3.546875 -4.875 C 3.878906 -4.875 4.125 -4.800781 4.28125 -4.65625 C 4.4375 -4.507812 4.515625 -4.320312 4.515625 -4.09375 C 4.515625 -3.820312 4.414062 -3.617188 4.21875 -3.484375 C 4.03125 -3.359375 3.757812 -3.296875 3.40625 -3.296875 C 3.40625 -3.535156 3.375 -3.71875 3.3125 -3.84375 C 3.257812 -3.96875 3.148438 -4.03125 2.984375 -4.03125 C 2.847656 -4.03125 2.734375 -3.976562 2.640625 -3.875 C 2.546875 -3.769531 2.46875 -3.640625 2.40625 -3.484375 C 2.351562 -3.328125 2.3125 -3.15625 2.28125 -2.96875 C 2.25 -2.78125 2.234375 -2.597656 2.234375 -2.421875 L 2.234375 -1.0625 C 2.234375 -0.800781 2.289062 -0.632812 2.40625 -0.5625 C 2.53125 -0.5 2.679688 -0.46875 2.859375 -0.46875 L 3.140625 -0.46875 L 3.140625 0 Z "/>
</g>
<g id="glyph-0-1">
<path d="M 2.03125 0.09375 C 1.414062 0.09375 0.972656 0 0.703125 -0.1875 C 0.429688 -0.375 0.296875 -0.617188 0.296875 -0.921875 C 0.296875 -1.171875 0.375 -1.34375 0.53125 -1.4375 C 0.695312 -1.53125 0.878906 -1.578125 1.078125 -1.578125 C 1.078125 -0.828125 1.410156 -0.453125 2.078125 -0.453125 C 2.378906 -0.453125 2.597656 -0.507812 2.734375 -0.625 C 2.867188 -0.75 2.9375 -0.898438 2.9375 -1.078125 C 2.9375 -1.273438 2.851562 -1.425781 2.6875 -1.53125 C 2.519531 -1.644531 2.242188 -1.769531 1.859375 -1.90625 C 1.515625 -2.019531 1.234375 -2.140625 1.015625 -2.265625 C 0.796875 -2.398438 0.628906 -2.5625 0.515625 -2.75 C 0.410156 -2.9375 0.359375 -3.171875 0.359375 -3.453125 C 0.359375 -3.929688 0.53125 -4.285156 0.875 -4.515625 C 1.226562 -4.753906 1.691406 -4.875 2.265625 -4.875 C 2.796875 -4.875 3.179688 -4.785156 3.421875 -4.609375 C 3.660156 -4.429688 3.78125 -4.238281 3.78125 -4.03125 C 3.78125 -3.632812 3.503906 -3.4375 2.953125 -3.4375 C 2.953125 -3.726562 2.875 -3.953125 2.71875 -4.109375 C 2.570312 -4.265625 2.378906 -4.34375 2.140625 -4.34375 C 1.898438 -4.34375 1.71875 -4.289062 1.59375 -4.1875 C 1.46875 -4.09375 1.40625 -3.960938 1.40625 -3.796875 C 1.40625 -3.597656 1.484375 -3.445312 1.640625 -3.34375 C 1.804688 -3.238281 2.085938 -3.113281 2.484375 -2.96875 C 2.804688 -2.863281 3.078125 -2.742188 3.296875 -2.609375 C 3.523438 -2.484375 3.695312 -2.328125 3.8125 -2.140625 C 3.925781 -1.960938 3.984375 -1.734375 3.984375 -1.453125 C 3.984375 -0.972656 3.8125 -0.59375 3.46875 -0.3125 C 3.132812 -0.0390625 2.65625 0.09375 2.03125 0.09375 Z "/>
</g>
<g id="glyph-0-2">
<path d="M 2.265625 0.09375 C 1.804688 0.09375 1.457031 -0.0078125 1.21875 -0.21875 C 0.976562 -0.425781 0.859375 -0.789062 0.859375 -1.3125 L 0.859375 -4.15625 L 0.1875 -4.15625 L 0.1875 -4.609375 C 0.375 -4.609375 0.539062 -4.644531 0.6875 -4.71875 C 0.84375 -4.800781 0.96875 -4.890625 1.0625 -4.984375 C 1.238281 -5.179688 1.375 -5.476562 1.46875 -5.875 L 2.203125 -5.875 L 2.203125 -4.765625 L 3.34375 -4.765625 L 3.34375 -4.15625 L 2.203125 -4.15625 L 2.203125 -1.40625 C 2.203125 -1.132812 2.25 -0.9375 2.34375 -0.8125 C 2.4375 -0.6875 2.585938 -0.625 2.796875 -0.625 C 2.910156 -0.625 3.019531 -0.628906 3.125 -0.640625 C 3.238281 -0.660156 3.335938 -0.6875 3.421875 -0.71875 L 3.421875 -0.140625 C 3.328125 -0.0976562 3.175781 -0.0507812 2.96875 0 C 2.769531 0.0625 2.535156 0.09375 2.265625 0.09375 Z "/>
</g>
<g id="glyph-0-3">
<path d="M 0.53125 -3.78125 L 0.53125 -4.40625 L 4.484375 -4.40625 L 4.484375 -3.78125 Z M 0.53125 -1.953125 L 0.53125 -2.5625 L 4.484375 -2.5625 L 4.484375 -1.953125 Z "/>
</g>
<g id="glyph-0-4">
<path d="M 0.78125 0 L 0.78125 -0.46875 L 1.515625 -0.46875 C 1.679688 -0.46875 1.8125 -0.507812 1.90625 -0.59375 C 2.007812 -0.675781 2.0625 -0.828125 2.0625 -1.046875 L 2.0625 -5.5 C 1.832031 -5.21875 1.628906 -4.992188 1.453125 -4.828125 C 1.273438 -4.660156 1.097656 -4.578125 0.921875 -4.578125 C 0.773438 -4.578125 0.648438 -4.632812 0.546875 -4.75 C 0.453125 -4.875 0.40625 -5.035156 0.40625 -5.234375 C 0.582031 -5.285156 0.78125 -5.359375 1 -5.453125 C 1.21875 -5.546875 1.472656 -5.703125 1.765625 -5.921875 L 2.390625 -6.390625 L 3.390625 -6.390625 L 3.390625 -1.046875 C 3.390625 -0.660156 3.570312 -0.46875 3.9375 -0.46875 L 4.5 -0.46875 L 4.5 0 Z "/>
</g>
</g>
</defs>
<g fill="rgb(17.647059%, 15.686275%, 27.843137%)" fill-opacity="1">
<use xlink:href="#glyph-0-0" x="30" y="29.50293"/>
<use xlink:href="#glyph-0-1" x="35" y="29.50293"/>
<use xlink:href="#glyph-0-2" x="39" y="29.50293"/>
<use xlink:href="#glyph-0-3" x="43" y="29.50293"/>
<use xlink:href="#glyph-0-4" x="48" y="29.50293"/>
</g>
</svg>
